<svg id="visual" viewBox="0 0 900 600" width="900" height="600" xmlns="http://www.w3.org/2000/svg" xmlns:xlink="http://www.w3.org/1999/xlink" version="1.1"><rect x="0" y="0" width="900" height="600" fill="#001220"></rect><defs><linearGradient id="grad1_0" x1="33.3%" y1="0%" x2="100%" y2="100%"><stop offset="20%" stop-color="#fbae3c" stop-opacity="1"></stop><stop offset="80%" stop-color="#fbae3c" stop-opacity="1"></stop></linearGradient></defs><defs><linearGradient id="grad1_1" x1="33.3%" y1="0%" x2="100%" y2="100%"><stop offset="20%" stop-color="#fbae3c" stop-opacity="1"></stop><stop offset="80%" stop-color="#f48350" stop-opacity="1"></stop></linearGradient></defs><defs><linearGradient id="grad1_2" x1="33.3%" y1="0%" x2="100%" y2="100%"><stop offset="20%" stop-color="#d96162" stop-opacity="1"></stop><stop offset="80%" stop-color="#f48350" stop-opacity="1"></stop></linearGradient></defs><defs><linearGradient id="grad1_3" x1="33.3%" y1="0%" x2="100%" y2="100%"><stop offset="20%" stop-color="#d96162" stop-opacity="1"></stop><stop offset="80%" stop-color="#af4b6d" stop-opacity="1"></stop></linearGradient></defs><defs><linearGradient id="grad1_4" x1="33.3%" y1="0%" x2="100%" y2="100%"><stop offset="20%" stop-color="#7c3e6b" stop-opacity="1"></stop><stop offset="80%" stop-color="#af4b6d" stop-opacity="1"></stop></linearGradient></defs><defs><linearGradient id="grad1_5" x1="33.3%" y1="0%" x2="100%" y2="100%"><stop offset="20%" stop-color="#7c3e6b" stop-opacity="1"></stop><stop offset="80%" stop-color="#49335c" stop-opacity="1"></stop></linearGradient></defs><defs><linearGradient id="grad1_6" x1="33.3%" y1="0%" x2="100%" y2="100%"><stop offset="20%" stop-color="#1d2540" stop-opacity="1"></stop><stop offset="80%" stop-color="#49335c" stop-opacity="1"></stop></linearGradient></defs><defs><linearGradient id="grad1_7" x1="33.3%" y1="0%" x2="100%" y2="100%"><stop offset="20%" stop-color="#1d2540" stop-opacity="1"></stop><stop offset="80%" stop-color="#001220" stop-opacity="1"></stop></linearGradient></defs><defs><linearGradient id="grad2_0" x1="0%" y1="0%" x2="66.7%" y2="100%"><stop offset="20%" stop-color="#fbae3c" stop-opacity="1"></stop><stop offset="80%" stop-color="#fbae3c" stop-opacity="1"></stop></linearGradient></defs><defs><linearGradient id="grad2_1" x1="0%" y1="0%" x2="66.7%" y2="100%"><stop offset="20%" stop-color="#f48350" stop-opacity="1"></stop><stop offset="80%" stop-color="#fbae3c" stop-opacity="1"></stop></linearGradient></defs><defs><linearGradient id="grad2_2" x1="0%" y1="0%" x2="66.7%" y2="100%"><stop offset="20%" stop-color="#f48350" stop-opacity="1"></stop><stop offset="80%" stop-color="#d96162" stop-opacity="1"></stop></linearGradient></defs><defs><linearGradient id="grad2_3" x1="0%" y1="0%" x2="66.7%" y2="100%"><stop offset="20%" stop-color="#af4b6d" stop-opacity="1"></stop><stop offset="80%" stop-color="#d96162" stop-opacity="1"></stop></linearGradient></defs><defs><linearGradient id="grad2_4" x1="0%" y1="0%" x2="66.7%" y2="100%"><stop offset="20%" stop-color="#af4b6d" stop-opacity="1"></stop><stop offset="80%" stop-color="#7c3e6b" stop-opacity="1"></stop></linearGradient></defs><defs><linearGradient id="grad2_5" x1="0%" y1="0%" x2="66.7%" y2="100%"><stop offset="20%" stop-color="#49335c" stop-opacity="1"></stop><stop offset="80%" stop-color="#7c3e6b" stop-opacity="1"></stop></linearGradient></defs><defs><linearGradient id="grad2_6" x1="0%" y1="0%" x2="66.7%" y2="100%"><stop offset="20%" stop-color="#49335c" stop-opacity="1"></stop><stop offset="80%" stop-color="#1d2540" stop-opacity="1"></stop></linearGradient></defs><defs><linearGradient id="grad2_7" x1="0%" y1="0%" x2="66.7%" y2="100%"><stop offset="20%" stop-color="#001220" stop-opacity="1"></stop><stop offset="80%" stop-color="#1d2540" stop-opacity="1"></stop></linearGradient></defs><g transform="translate(900, 0)"><path d="M0 405.6C-21.6 403.8 -43.2 402 -61.9 391.1C-80.7 380.3 -96.7 360.5 -113.1 348.1C-129.5 335.7 -146.3 330.8 -167.5 328.8C-188.7 326.8 -214.3 327.7 -228.1 313.9C-241.8 300.1 -243.8 271.5 -249.6 249.6C-255.4 227.7 -265 212.3 -270.2 196.3C-275.5 180.3 -276.4 163.6 -302.1 153.9C-327.7 144.2 -378.1 141.6 -385.8 125.3C-393.4 109.1 -358.4 79.3 -354.6 56.2C-350.8 33 -378.2 16.5 -405.6 0L0 0Z" fill="#0c1c30"></path><path d="M0 354.9C-18.9 353.3 -37.8 351.7 -54.2 342.2C-70.6 332.8 -84.6 315.4 -99 304.6C-113.3 293.7 -128 289.4 -146.6 287.7C-165.1 285.9 -187.5 286.7 -199.6 274.7C-211.6 262.6 -213.3 237.6 -218.4 218.4C-223.5 199.2 -231.8 185.8 -236.4 171.8C-241 157.8 -241.8 143.1 -264.3 134.7C-286.7 126.2 -330.8 123.9 -337.6 109.7C-344.3 95.5 -313.6 69.4 -310.3 49.1C-306.9 28.9 -330.9 14.4 -354.9 0L0 0Z" fill="#312c4f"></path><path d="M0 304.2C-16.2 302.8 -32.4 301.5 -46.5 293.3C-60.5 285.2 -72.5 270.3 -84.8 261.1C-97.1 251.8 -109.7 248.1 -125.6 246.6C-141.5 245.1 -160.7 245.8 -171 235.4C-181.4 225.1 -182.9 203.7 -187.2 187.2C-191.5 170.8 -198.7 159.3 -202.7 147.2C-206.6 135.2 -207.3 122.7 -226.5 115.4C-245.8 108.2 -283.6 106.2 -289.3 94C-295.1 81.8 -268.8 59.5 -265.9 42.1C-263.1 24.8 -283.6 12.4 -304.2 0L0 0Z" fill="#623965"></path><path d="M0 253.5C-13.5 252.4 -27 251.2 -38.7 244.5C-50.5 237.7 -60.4 225.3 -70.7 217.6C-80.9 209.8 -91.5 206.7 -104.7 205.5C-117.9 204.2 -133.9 204.8 -142.5 196.2C-151.1 187.6 -152.4 169.7 -156 156C-159.6 142.3 -165.6 132.7 -168.9 122.7C-172.2 112.7 -172.7 102.2 -188.8 96.2C-204.8 90.1 -236.3 88.5 -241.1 78.3C-245.9 68.2 -224 49.6 -221.6 35.1C-219.2 20.6 -236.4 10.3 -253.5 0L0 0Z" fill="#96446e"></path><path d="M0 202.8C-10.8 201.9 -21.6 201 -31 195.6C-40.4 190.1 -48.4 180.2 -56.6 174C-64.8 167.9 -73.2 165.4 -83.8 164.4C-94.4 163.4 -107.1 163.9 -114 156.9C-120.9 150 -121.9 135.8 -124.8 124.8C-127.7 113.8 -132.5 106.2 -135.1 98.2C-137.7 90.1 -138.2 81.8 -151 77C-163.9 72.1 -189.1 70.8 -192.9 62.7C-196.7 54.6 -179.2 39.7 -177.3 28.1C-175.4 16.5 -189.1 8.3 -202.8 0L0 0Z" fill="#c55469"></path><path d="M0 152.1C-8.1 151.4 -16.2 150.7 -23.2 146.7C-30.3 142.6 -36.3 135.2 -42.4 130.5C-48.6 125.9 -54.9 124 -62.8 123.3C-70.8 122.5 -80.4 122.9 -85.5 117.7C-90.7 112.5 -91.4 101.8 -93.6 93.6C-95.8 85.4 -99.4 79.6 -101.3 73.6C-103.3 67.6 -103.6 61.3 -113.3 57.7C-122.9 54.1 -141.8 53.1 -144.7 47C-147.5 40.9 -134.4 29.7 -133 21.1C-131.5 12.4 -141.8 6.2 -152.1 0L0 0Z" fill="#e9705a"></path><path d="M0 101.4C-5.4 100.9 -10.8 100.5 -15.5 97.8C-20.2 95.1 -24.2 90.1 -28.3 87C-32.4 83.9 -36.6 82.7 -41.9 82.2C-47.2 81.7 -53.6 81.9 -57 78.5C-60.5 75 -61 67.9 -62.4 62.4C-63.8 56.9 -66.2 53.1 -67.6 49.1C-68.9 45.1 -69.1 40.9 -75.5 38.5C-81.9 36.1 -94.5 35.4 -96.4 31.3C-98.4 27.3 -89.6 19.8 -88.6 14C-87.7 8.3 -94.5 4.1 -101.4 0L0 0Z" fill="#fa9845"></path><path d="M0 50.7C-2.7 50.5 -5.4 50.2 -7.7 48.9C-10.1 47.5 -12.1 45.1 -14.1 43.5C-16.2 42 -18.3 41.3 -20.9 41.1C-23.6 40.8 -26.8 41 -28.5 39.2C-30.2 37.5 -30.5 33.9 -31.2 31.2C-31.9 28.5 -33.1 26.5 -33.8 24.5C-34.4 22.5 -34.5 20.4 -37.8 19.2C-41 18 -47.3 17.7 -48.2 15.7C-49.2 13.6 -44.8 9.9 -44.3 7C-43.8 4.1 -47.3 2.1 -50.7 0L0 0Z" fill="#fbae3c"></path></g><g transform="translate(0, 600)"><path d="M0 -405.6C23.8 -408.3 47.6 -410.9 61 -385.2C74.4 -359.4 77.4 -305.3 98.6 -303.4C119.7 -301.5 159 -351.8 184.1 -361.4C209.3 -371 220.2 -339.7 226.9 -312.3C233.6 -284.8 236.1 -261.1 243.2 -243.2C250.3 -225.4 262 -213.3 279.9 -203.4C297.8 -193.4 322 -185.6 334.1 -170.2C346.3 -154.9 346.4 -132.1 343.3 -111.6C340.2 -91 333.9 -72.7 343.7 -54.4C353.6 -36.2 379.6 -18.1 405.6 0L0 0Z" fill="#0c1c30"></path><path d="M0 -354.9C20.8 -357.3 41.7 -359.6 53.4 -337C65.1 -314.5 67.7 -267.1 86.3 -265.5C104.8 -263.8 139.2 -307.9 161.1 -316.2C183.1 -324.6 192.6 -297.3 198.5 -273.2C204.4 -249.2 206.6 -228.5 212.8 -212.8C219.1 -197.2 229.3 -186.7 244.9 -178C260.6 -169.2 281.7 -162.4 292.4 -149C303 -135.6 303.1 -115.6 300.4 -97.6C297.7 -79.6 292.1 -63.6 300.8 -47.6C309.4 -31.7 332.1 -15.8 354.9 0L0 0Z" fill="#312c4f"></path><path d="M0 -304.2C17.9 -306.2 35.7 -308.2 45.8 -288.9C55.8 -269.6 58.1 -229 73.9 -227.5C89.8 -226.1 119.3 -263.9 138.1 -271.1C156.9 -278.2 165.1 -254.8 170.2 -234.2C175.2 -213.6 177.1 -195.8 182.4 -182.4C187.8 -169 196.5 -160 209.9 -152.5C223.4 -145.1 241.5 -139.2 250.6 -127.7C259.7 -116.2 259.8 -99.1 257.5 -83.7C255.2 -68.2 250.4 -54.5 257.8 -40.8C265.2 -27.2 284.7 -13.6 304.2 0L0 0Z" fill="#623965"></path><path d="M0 -253.5C14.9 -255.2 29.8 -256.8 38.1 -240.7C46.5 -224.7 48.4 -190.8 61.6 -189.6C74.8 -188.4 99.4 -219.9 115.1 -225.9C130.8 -231.9 137.6 -212.3 141.8 -195.2C146 -178 147.6 -163.2 152 -152C156.5 -140.9 163.8 -133.3 174.9 -127.1C186.1 -120.9 201.2 -116 208.8 -106.4C216.4 -96.8 216.5 -82.6 214.6 -69.7C212.6 -56.9 208.7 -45.4 214.8 -34C221 -22.6 237.2 -11.3 253.5 0L0 0Z" fill="#96446e"></path><path d="M0 -202.8C11.9 -204.1 23.8 -205.5 30.5 -192.6C37.2 -179.7 38.7 -152.6 49.3 -151.7C59.9 -150.7 79.5 -175.9 92.1 -180.7C104.6 -185.5 110.1 -169.9 113.4 -156.1C116.8 -142.4 118.1 -130.6 121.6 -121.6C125.2 -112.7 131 -106.7 140 -101.7C148.9 -96.7 161 -92.8 167.1 -85.1C173.1 -77.5 173.2 -66.1 171.7 -55.8C170.1 -45.5 166.9 -36.3 171.9 -27.2C176.8 -18.1 189.8 -9.1 202.8 0L0 0Z" fill="#c55469"></path><path d="M0 -152.1C8.9 -153.1 17.9 -154.1 22.9 -144.4C27.9 -134.8 29 -114.5 37 -113.8C44.9 -113.1 59.6 -131.9 69.1 -135.5C78.5 -139.1 82.6 -127.4 85.1 -117.1C87.6 -106.8 88.6 -97.9 91.2 -91.2C93.9 -84.5 98.3 -80 105 -76.3C111.7 -72.5 120.7 -69.6 125.3 -63.8C129.9 -58.1 129.9 -49.5 128.7 -41.8C127.6 -34.1 125.2 -27.2 128.9 -20.4C132.6 -13.6 142.3 -6.8 152.1 0L0 0Z" fill="#e9705a"></path><path d="M0 -101.4C6 -102.1 11.9 -102.7 15.3 -96.3C18.6 -89.9 19.4 -76.3 24.6 -75.8C29.9 -75.4 39.8 -88 46 -90.4C52.3 -92.7 55 -84.9 56.7 -78.1C58.4 -71.2 59 -65.3 60.8 -60.8C62.6 -56.3 65.5 -53.3 70 -50.8C74.5 -48.4 80.5 -46.4 83.5 -42.6C86.6 -38.7 86.6 -33 85.8 -27.9C85.1 -22.7 83.5 -18.2 85.9 -13.6C88.4 -9.1 94.9 -4.5 101.4 0L0 0Z" fill="#fa9845"></path><path d="M0 -50.7C3 -51 6 -51.4 7.6 -48.1C9.3 -44.9 9.7 -38.2 12.3 -37.9C15 -37.7 19.9 -44 23 -45.2C26.2 -46.4 27.5 -42.5 28.4 -39C29.2 -35.6 29.5 -32.6 30.4 -30.4C31.3 -28.2 32.8 -26.7 35 -25.4C37.2 -24.2 40.2 -23.2 41.8 -21.3C43.3 -19.4 43.3 -16.5 42.9 -13.9C42.5 -11.4 41.7 -9.1 43 -6.8C44.2 -4.5 47.4 -2.3 50.7 0L0 0Z" fill="#fbae3c"></path></g></svg>